<svg viewBox="0 0 1407 188" fill="none" xmlns="http://www.w3.org/2000/svg">
	<path d="M142.722 166L161.322 48H124.322L128.922 20H232.922L228.322 48H191.322L172.722 166H142.722Z" fill="#873FE5"/>
	<path
		d="M265.844 168C254.777 168 246.51 164.133 241.044 156.4C235.577 148.667 233.91 138.2 236.044 125L240.644 97C242.11 88.2 244.844 80.6 248.844 74.2C252.844 67.8 257.844 62.8667 263.844 59.4C269.977 55.8 276.71 54 284.044 54C293.11 54 299.777 56.6667 304.044 62C308.444 67.2 309.91 74.5333 308.444 84L302.444 77H309.444L312.044 56H341.844L324.444 166H295.444L298.844 145H291.844L299.844 138C298.377 147.467 294.577 154.867 288.444 160.2C282.444 165.4 274.91 168 265.844 168ZM280.844 142C286.31 142 290.777 140.467 294.244 137.4C297.844 134.2 300.11 129.733 301.044 124L305.244 98C306.177 92.2667 305.31 87.8667 302.644 84.8C300.11 81.6 296.11 80 290.644 80C285.044 80 280.51 81.6 277.044 84.8C273.577 87.8667 271.377 92.2667 270.444 98L266.244 124C265.31 129.733 266.11 134.2 268.644 137.4C271.177 140.467 275.244 142 280.844 142Z"
		fill="#873FE5"/>
	<path
		d="M351.366 166L368.766 56H398.766L392.166 97.6H406.366L435.966 56H469.966L430.566 110.8L453.166 166H419.966L403.566 122.8H388.166L381.366 166H351.366Z"
		fill="#873FE5"/>
	<path d="M470.688 166L493.888 20H587.488L564.288 166H534.288L552.888 48H519.288L500.688 166H470.688Z" fill="#873FE5"/>
	<path
		d="M637.009 168C627.276 168 619.076 166.2 612.409 162.6C605.876 158.867 601.143 153.733 598.209 147.2C595.409 140.533 594.676 132.8 596.009 124L600.209 98C601.676 89.2 604.876 81.5333 609.809 75C614.743 68.3333 621.076 63.2 628.809 59.6C636.676 55.8667 645.476 54 655.209 54C665.076 54 673.276 55.8667 679.809 59.6C686.476 63.2 691.209 68.3333 694.009 75C696.943 81.5333 697.676 89.2 696.209 98L692.009 124C690.676 132.8 687.476 140.533 682.409 147.2C677.476 153.733 671.143 158.867 663.409 162.6C655.676 166.2 646.876 168 637.009 168ZM641.209 142C647.076 142 651.743 140.467 655.209 137.4C658.809 134.2 661.076 129.733 662.009 124L666.209 98C667.143 92.1333 666.276 87.6667 663.609 84.6C661.076 81.5333 656.876 80 651.009 80C645.276 80 640.609 81.5333 637.009 84.6C633.409 87.6667 631.143 92.1333 630.209 98L626.009 124C625.076 129.733 625.943 134.2 628.609 137.4C631.276 140.467 635.476 142 641.209 142Z"
		fill="#873FE5"/>
	<path
		d="M745.331 168C734.665 168 726.665 164.267 721.331 156.8C716.131 149.333 714.531 139.4 716.531 127L727.731 56H757.731L746.931 124C745.998 129.733 746.798 134.2 749.331 137.4C751.998 140.467 755.998 142 761.331 142C766.665 142 770.998 140.467 774.331 137.4C777.798 134.2 779.998 129.733 780.931 124L791.731 56H821.731L804.331 166H775.331L778.731 145H769.931L779.731 138C778.265 147.333 774.398 154.667 768.131 160C761.998 165.333 754.398 168 745.331 168ZM778.331 39C767.398 39 758.931 36.2667 752.931 30.8C746.931 25.2 744.598 17.9333 745.931 9H768.531C767.998 12.7333 768.798 15.8 770.931 18.2C773.198 20.4667 776.398 21.6 780.531 21.6C784.798 21.6 788.398 20.4667 791.331 18.2C794.265 15.8 795.998 12.7333 796.531 9H819.931C818.598 17.9333 814.065 25.2 806.331 30.8C798.731 36.2667 789.398 39 778.331 39Z"
		fill="#873FE5"/>
	<path
		d="M877.053 168C867.186 168.133 858.92 166.467 852.253 163C845.72 159.4 840.986 154.267 838.053 147.6C835.253 140.8 834.586 132.933 836.053 124L838.253 110.2C840.253 96.7333 845.12 86.2 852.853 78.6C860.586 71 870.253 67.2 881.853 67.2C891.32 67.2 898.12 69.4667 902.253 74C906.386 78.4 907.853 84.3333 906.653 91.8L904.653 89H907.453L909.653 75C910.986 66.4667 909.72 60 905.853 55.6C901.986 51.2 895.653 49 886.853 49H853.853L858.253 20H891.253C909.52 20 922.853 24.8 931.253 34.4C939.653 43.8667 942.453 57.4 939.653 75L932.053 124C929.92 137.467 923.853 148.133 913.853 156C903.986 163.733 891.72 167.733 877.053 168ZM881.053 142C886.92 142 891.653 140.467 895.253 137.4C898.853 134.2 901.12 129.733 902.053 124L904.253 110.2C905.186 104.333 904.32 99.8667 901.653 96.8C899.12 93.7333 894.92 92.2 889.053 92.2C883.32 92.2 878.653 93.7333 875.053 96.8C871.453 99.8667 869.186 104.333 868.253 110.2L866.053 124C865.12 129.733 865.92 134.2 868.453 137.4C871.12 140.467 875.32 142 881.053 142Z"
		fill="#873FE5"/>
	<path
		d="M996.975 168C987.242 168 979.042 166.2 972.375 162.6C965.708 158.867 960.908 153.733 957.975 147.2C955.175 140.533 954.442 132.8 955.775 124L959.975 98C961.442 89.2 964.642 81.5333 969.575 75C974.642 68.3333 981.042 63.2 988.775 59.6C996.642 55.8667 1005.44 54 1015.17 54C1024.91 54 1033.04 55.8667 1039.57 59.6C1046.24 63.2 1050.98 68.3333 1053.78 75C1056.71 81.5333 1057.44 89.2 1055.97 98L1052.78 118H985.375L984.375 124C983.308 130.933 984.175 136.2 986.975 139.8C989.775 143.267 994.508 145 1001.17 145C1005.84 145 1009.71 144.2 1012.78 142.6C1015.98 141 1018.24 138.8 1019.58 136H1048.97C1046.44 142.4 1042.58 148 1037.38 152.8C1032.17 157.6 1026.11 161.333 1019.17 164C1012.37 166.667 1004.97 168 996.975 168ZM1026.57 102.6L1027.38 97.6C1028.44 90.8 1027.71 85.6 1025.18 82C1022.64 78.4 1018.11 76.6 1011.58 76.6C1005.04 76.6 999.842 78.4667 995.975 82.2C992.108 85.9333 989.642 91.2 988.575 98L987.975 101L1028.97 100.6L1026.57 102.6Z"
		fill="#873FE5"/>
	<path d="M1102.1 166L1115.1 84H1079.1L1083.5 56H1185.5L1181.1 84H1145.1L1132.1 166H1102.1Z" fill="#873FE5"/>
	<path
		d="M85.4 156.2L0 114.6L4.4 86.0002L103 44.2002L98.8 72.2002L39.8 96.4002C36.8667 97.6002 33.8667 98.6002 30.8 99.4002C27.8667 100.2 25.4667 100.734 23.6 101C25.3333 101.267 27.6 101.8 30.4 102.6C33.2 103.267 35.8667 104.2 38.4 105.4L89.6 129.6L85.4 156.2Z"
		fill="#9A4DFF"/>
	<path
		d="M1191.54 188L1289.34 0H1321.14L1302.74 35.2L1406.74 85.8L1402.14 114.4L1303.54 156.2L1307.74 128L1366.94 103.6C1370.01 102.4 1373.34 101.467 1376.94 100.8C1380.54 100 1383.41 99.5333 1385.54 99.4C1383.41 99.1333 1380.61 98.6667 1377.14 98C1373.81 97.3333 1370.81 96.3333 1368.14 95L1291.14 57.6L1223.34 188H1191.54Z"
		fill="#9A4DFF"/>
</svg>
